<svg width="24" height="19" viewBox="0 0 24 19" fill="none" xmlns="http://www.w3.org/2000/svg">
<path d="M23.643 2.48883C22.808 2.85883 21.911 3.10883 20.968 3.22183C21.941 2.63963 22.669 1.7233 23.016 0.643835C22.1019 1.18682 21.1014 1.56903 20.058 1.77383C19.3564 1.0247 18.4271 0.528161 17.4143 0.361309C16.4016 0.194457 15.3621 0.366626 14.4572 0.851088C13.5524 1.33555 12.8328 2.1052 12.4102 3.04054C11.9875 3.97588 11.8855 5.02458 12.12 6.02383C10.2677 5.93083 8.45564 5.44938 6.80144 4.61074C5.14723 3.7721 3.68785 2.595 2.51801 1.15583C2.11801 1.84583 1.88801 2.64583 1.88801 3.49783C1.88757 4.26483 2.07644 5.02008 2.43789 5.69657C2.79934 6.37306 3.32217 6.94987 3.96001 7.37583C3.22029 7.3523 2.49688 7.15242 1.85001 6.79283V6.85283C1.84994 7.92858 2.22204 8.97121 2.90319 9.80383C3.58434 10.6364 4.53258 11.2078 5.58701 11.4208C4.9008 11.6066 4.18135 11.6339 3.48301 11.5008C3.78051 12.4264 4.36001 13.2359 5.14038 13.8158C5.92075 14.3957 6.86293 14.717 7.83501 14.7348C6.18484 16.0302 4.1469 16.7329 2.04901 16.7298C1.67739 16.7299 1.30609 16.7082 0.937012 16.6648C3.06649 18.034 5.54535 18.7607 8.07701 18.7578C16.647 18.7578 21.332 11.6598 21.332 5.50383C21.332 5.30383 21.327 5.10183 21.318 4.90183C22.2293 4.24281 23.0159 3.42673 23.641 2.49183L23.643 2.48883Z" fill="#313131"/>
</svg>
